<?xml version="1.0" encoding="UTF-8"?>
<svg xmlns="http://www.w3.org/2000/svg" xmlns:xlink="http://www.w3.org/1999/xlink" viewBox="0 0 64 64" width="64px" height="64px">
<g id="surface14912181">
<path style=" stroke:none;fill-rule:nonzero;fill:rgb(96.862745%,87.843138%,9.019608%);fill-opacity:1;" d="M 32 6 C 17.664062 6 6 17.664062 6 32 C 6 46.335938 17.664062 58 32 58 C 46.335938 58 58 46.335938 58 32 C 58 17.664062 46.335938 6 32 6 Z M 32 10 C 44.171875 10 54 19.828125 54 32 C 54 44.171875 44.171875 54 32 54 C 19.828125 54 10 44.171875 10 32 C 10 19.828125 19.828125 10 32 10 Z M 46 18.0625 C 45.976562 18.0625 45.960938 18.0625 45.9375 18.0625 C 37.976562 18.132812 30.039062 24.023438 26.0625 28 C 22.0625 28 16.0625 30 14.0625 34 L 24.0625 34 L 22.0625 38 L 26 42 L 30 40 L 30 50 C 34 48 36 42 36 38 C 39.976562 34.023438 45.867188 26.085938 45.9375 18.125 Z M 38 24 C 39.101562 24 40 24.898438 40 26 C 40 27.101562 39.101562 28 38 28 C 36.898438 28 36 27.101562 36 26 C 36 24.898438 36.898438 24 38 24 Z M 21.1875 39.1875 C 21.1875 39.1875 18.015625 40.414062 18.015625 45.992188 L 18 46 L 18.007812 46 C 23.585938 45.992188 24.8125 42.820312 24.8125 42.820312 L 24.4375 42.445312 C 24.4375 42.445312 23.007812 43.617188 20.414062 43.617188 L 20.398438 43.617188 L 20.398438 43.59375 C 20.398438 41 21.5625 39.5625 21.5625 39.5625 Z M 21.1875 39.1875 "/>
</g>
</svg>
