<?xml version="1.0" encoding="UTF-8"?>
<svg xmlns="http://www.w3.org/2000/svg" xmlns:xlink="http://www.w3.org/1999/xlink" viewBox="0 0 64 64" width="64px" height="64px">
<g id="surface14948242">
<path style=" stroke:none;fill-rule:nonzero;fill:rgb(96.862745%,87.843138%,9.019608%);fill-opacity:1;" d="M 10 10 L 10 54 L 54 54 L 54 10 Z M 14 14 L 50 14 L 50 50 L 14 50 Z M 33.742188 20.722656 C 32.476562 20.722656 31.738281 21.398438 31.738281 22.660156 C 31.738281 23.945312 32.480469 24.664062 33.742188 24.664062 C 35.027344 24.664062 35.765625 23.945312 35.765625 22.660156 C 35.765625 21.394531 35.027344 20.722656 33.742188 20.722656 Z M 39.96875 22.832031 C 39.730469 25.246094 38.945312 26.226562 37.007812 26.445312 L 37.007812 28.429688 C 38.792969 28.429688 38.726562 28.359375 38.726562 28.644531 L 38.726562 34.480469 C 38.726562 36.984375 39.730469 38 42.386719 38 C 43.648438 38 45.042969 37.640625 46 37.160156 L 45.390625 35.195312 C 41.820312 36.546875 42 34.109375 42 33.738281 L 42 28.425781 L 45.390625 28.425781 L 45.390625 26.207031 L 42 26.207031 L 42 22.832031 Z M 23.457031 26.429688 C 21.140625 26.441406 18.347656 27.363281 18.347656 30.761719 C 18.347656 32.394531 19.175781 33.546875 20.265625 34.09375 C 18.894531 35.355469 18.238281 35.941406 18.238281 36.769531 C 18.238281 37.378906 18.5 37.921875 19.21875 38.246094 C 18.457031 38.964844 18 39.511719 18 40.515625 C 18 42.257812 19.542969 43.28125 23.550781 43.28125 C 27.425781 43.28125 29.671875 41.84375 29.671875 39.296875 C 29.671875 36.074219 27.210938 36.207031 21.375 35.835938 L 22.113281 34.65625 C 23.59375 35.070312 28.601562 35.203125 28.601562 30.957031 C 28.601562 29.933594 28.1875 29.214844 27.773438 28.714844 L 29.820312 28.5625 L 29.820312 26.664062 L 25.488281 26.664062 C 24.945312 26.523438 24.230469 26.425781 23.457031 26.429688 Z M 31.109375 26.449219 L 30.867188 28.257812 C 32.238281 28.734375 32.347656 28.667969 32.347656 29.125 L 32.347656 35.679688 C 32.347656 36.160156 32.324219 36.074219 30.867188 36.269531 L 30.867188 38 L 37.203125 38 L 37.203125 36.269531 L 36.070312 36.117188 C 35.746094 36.074219 35.722656 36.027344 35.722656 35.679688 L 35.722656 26.449219 Z M 23.640625 28.644531 C 26.359375 28.644531 26.425781 32.523438 23.574219 32.523438 C 20.699219 32.523438 20.832031 28.644531 23.640625 28.644531 Z M 21.199219 38.835938 C 25.445312 39.140625 26.359375 39.03125 26.359375 39.882812 C 26.359375 41.648438 20.632812 41.644531 20.632812 40.011719 C 20.632812 39.574219 20.914062 39.207031 21.199219 38.835938 Z M 21.199219 38.835938 "/>
</g>
</svg>
