<?xml version="1.0" encoding="UTF-8"?>
<svg xmlns="http://www.w3.org/2000/svg" xmlns:xlink="http://www.w3.org/1999/xlink" viewBox="0 0 64 64" width="64px" height="64px">
<g id="surface16436767">
<path style=" stroke:none;fill-rule:nonzero;fill:rgb(96.862745%,87.843138%,9.019608%);fill-opacity:1;" d="M 32 4 C 30.992188 4 30.007812 4.367188 29.25 5.125 L 23.625 10.8125 C 23.320312 10.976562 23.0625 11.210938 22.875 11.5 L 5.125 29.25 C 3.609375 30.757812 3.609375 33.234375 5.125 34.75 L 29.25 58.875 C 30.765625 60.382812 33.234375 60.382812 34.75 58.875 L 58.875 34.75 C 60.390625 33.242188 60.390625 30.765625 58.875 29.25 L 34.75 5.125 C 33.992188 4.367188 33.007812 4 32 4 Z M 32 8.0625 L 55.9375 32 L 32 55.9375 L 8.0625 32 L 24.625 15.4375 L 28.125 18.9375 C 28.03125 19.273438 28 19.632812 28 20 C 28 21.476562 28.804688 22.742188 30 23.4375 L 30 40.5625 C 28.804688 41.257812 28 42.523438 28 44 C 28 46.210938 29.789062 48 32 48 C 34.210938 48 36 46.210938 36 44 C 36 42.523438 35.195312 41.257812 34 40.5625 L 34 24.875 L 40.125 31 C 40.039062 31.320312 40 31.65625 40 32 C 40 34.210938 41.789062 36 44 36 C 46.210938 36 48 34.210938 48 32 C 48 29.789062 46.210938 28 44 28 C 43.65625 28 43.320312 28.039062 43 28.125 L 35.875 21 C 35.960938 20.679688 36 20.34375 36 20 C 36 17.789062 34.210938 16 32 16 C 31.632812 16 31.273438 16.03125 30.9375 16.125 L 27.4375 12.625 Z M 32 8.0625 "/>
</g>
</svg>
