<?xml version="1.0" encoding="UTF-8"?>
<svg xmlns="http://www.w3.org/2000/svg" xmlns:xlink="http://www.w3.org/1999/xlink" viewBox="0 0 64 64" width="64px" height="64px">
<g id="surface15003602">
<path style=" stroke:none;fill-rule:nonzero;fill:rgb(96.862745%,87.843138%,9.019608%);fill-opacity:1;" d="M 10 10 L 10 14 L 26 14 L 26 38.621094 L 34 30.621094 L 42 38.621094 L 42 14 L 50 14 L 50 54 L 54 54 L 54 10 Z M 30 14 L 38 14 L 38 28.964844 L 34 24.964844 L 30 28.964844 Z M 10 26 L 10 30 L 22 30 L 22 26 Z M 10 34 L 10 38 L 22 38 L 22 34 Z M 10 42 L 10 46 L 44 46 L 44 42 Z M 10 50 L 10 54 L 44 54 L 44 50 Z M 10 50 "/>
</g>
</svg>
