<?xml version="1.0" encoding="UTF-8"?>
<svg xmlns="http://www.w3.org/2000/svg" xmlns:xlink="http://www.w3.org/1999/xlink" viewBox="0 0 64 64" width="64px" height="64px">
<g id="surface15483053">
<path style=" stroke:none;fill-rule:nonzero;fill:rgb(96.862745%,87.843138%,9.019608%);fill-opacity:1;" d="M 31 8 C 22.726562 8 16 17.097656 16 28.28125 C 16 33.730469 17.617188 38.65625 20.214844 42.300781 C 19.824219 43.375 19.980469 44.570312 20.632812 45.503906 C 21.289062 46.441406 22.359375 47 23.5 47 C 25.433594 47 27 45.433594 27 43.5 C 27 41.566406 25.433594 40 23.5 40 C 23.464844 40 23.429688 40.003906 23.394531 40.003906 C 21.308594 37.042969 20 32.886719 20 28.28125 C 20 19.304688 24.9375 12 31 12 C 35.339844 12 39.089844 15.75 40.878906 21.164062 C 42.421875 21.621094 43.957031 22.195312 45.449219 22.914062 C 43.703125 14.328125 37.894531 8 31 8 Z M 28.5 23.5 C 26.566406 23.5 25 25.066406 25 27 C 25 28.933594 26.566406 30.5 28.5 30.5 C 29.996094 30.5 31.324219 29.546875 31.808594 28.132812 C 35.601562 27.679688 40.0625 28.785156 44.132812 31.289062 C 51.832031 36.023438 55.914062 44.492188 53.050781 49.777344 C 52.042969 51.636719 50.269531 52.949219 47.910156 53.578125 C 45.480469 54.226562 42.648438 54.101562 39.769531 53.304688 C 38.65625 54.371094 37.421875 55.355469 36.109375 56.289062 C 38.945312 57.40625 41.839844 57.996094 44.570312 57.996094 C 46.09375 57.996094 47.5625 57.816406 48.941406 57.449219 C 52.386719 56.527344 55.019531 54.535156 56.5625 51.6875 C 60.535156 44.347656 55.996094 33.890625 46.226562 27.878906 C 41.175781 24.769531 35.480469 23.472656 30.644531 24.238281 C 30.03125 23.761719 29.277344 23.5 28.5 23.5 Z M 12.273438 32.277344 C 6.464844 38.226562 4.304688 45.917969 7.429688 51.6875 C 8.972656 54.535156 11.605469 56.527344 15.050781 57.449219 C 16.429688 57.820312 17.902344 57.996094 19.425781 57.996094 C 23.578125 57.996094 28.121094 56.652344 32.234375 54.121094 C 37.515625 50.875 41.246094 46.328125 42.949219 41.679688 C 44.441406 40.992188 45.253906 39.363281 44.90625 37.757812 C 44.558594 36.152344 43.140625 35.007812 41.5 35 C 40.117188 35 38.863281 35.816406 38.304688 37.078125 C 37.742188 38.339844 37.976562 39.816406 38.902344 40.84375 C 37.382812 44.496094 34.308594 48.152344 30.144531 50.714844 C 25.441406 53.605469 20.1875 54.679688 16.085938 53.582031 C 13.726562 52.953125 11.953125 51.636719 10.945312 49.78125 C 9.0625 46.308594 10.195312 41.464844 13.367188 37.203125 C 12.875 35.632812 12.5 33.988281 12.273438 32.277344 Z M 12.273438 32.277344 "/>
</g>
</svg>
