<?xml version="1.0" encoding="UTF-8"?>
<svg xmlns="http://www.w3.org/2000/svg" xmlns:xlink="http://www.w3.org/1999/xlink" viewBox="0 0 64 64" width="64px" height="64px">
<g id="surface14967038">
<path style=" stroke:none;fill-rule:nonzero;fill:rgb(96.862745%,87.843138%,9.019608%);fill-opacity:1;" d="M 10 10 L 10 54 L 54 54 L 54 10 Z M 14 14 L 50 14 L 50 50 L 14 50 Z M 40.488281 30 C 37.636719 30 35.796875 31.824219 35.796875 34.238281 C 35.796875 36.859375 37.335938 38.113281 39.652344 39.101562 L 40.453125 39.445312 C 41.917969 40.089844 42.789062 40.46875 42.789062 41.570312 C 42.789062 42.5 41.933594 43.167969 40.605469 43.167969 C 39.03125 43.167969 38.132812 42.332031 37.449219 41.210938 L 34.828125 42.710938 C 35.757812 44.574219 37.695312 46 40.679688 46 C 43.71875 46 46 44.421875 46 41.535156 C 46 38.835938 44.460938 37.636719 41.722656 36.480469 L 40.925781 36.136719 C 39.539062 35.527344 38.949219 35.128906 38.949219 34.179688 C 38.949219 33.398438 39.539062 32.792969 40.488281 32.792969 C 41.421875 32.792969 42.007812 33.191406 42.558594 34.179688 L 45.070312 32.566406 C 44.007812 30.703125 42.539062 30 40.488281 30 Z M 28.789062 30.191406 L 28.789062 41.117188 C 28.789062 42.714844 28.105469 43.128906 27.058594 43.128906 C 25.957031 43.128906 25.480469 42.371094 24.988281 41.476562 L 22.367188 43.054688 C 23.128906 44.671875 24.625 46 27.191406 46 C 30.042969 46 32 44.476562 32 41.152344 L 32 30.191406 Z M 28.789062 30.191406 "/>
</g>
</svg>
