<?xml version="1.0" encoding="UTF-8"?>
<svg xmlns="http://www.w3.org/2000/svg" xmlns:xlink="http://www.w3.org/1999/xlink" viewBox="0 0 64 64" width="64px" height="64px">
<g id="surface14951187">
<path style=" stroke:none;fill-rule:nonzero;fill:rgb(96.862745%,87.843138%,9.019608%);fill-opacity:1;" d="M 32 14.335938 C 14.328125 14.335938 0 21.863281 0 31.164062 C 0 40.464844 14.328125 47.996094 32 47.996094 C 49.671875 47.996094 64 40.464844 64 31.164062 C 64 21.863281 49.671875 14.335938 32 14.335938 Z M 32 16.015625 C 49.140625 16.015625 62.320312 23.234375 62.320312 31.164062 C 62.320312 39.09375 49.128906 46.316406 32 46.316406 C 14.859375 46.316406 1.679688 39.09375 1.679688 31.164062 C 1.679688 23.234375 14.871094 16.015625 32 16.015625 Z M 28.113281 19.351562 L 24.878906 36.03125 L 28.488281 36.03125 L 30.351562 26.472656 C 33.289062 26.472656 34.503906 26.355469 35.039062 26.929688 C 35.59375 27.523438 35.308594 28.175781 33.785156 36.03125 L 37.445312 36.03125 C 39.03125 27.910156 39.730469 26.1875 38.265625 24.839844 C 36.871094 23.554688 33.984375 23.78125 30.867188 23.78125 L 31.726562 19.351562 Z M 12.976562 23.792969 L 9.738281 40.484375 L 13.371094 40.484375 L 14.230469 36.050781 C 18.296875 36.050781 20.820312 36.347656 23.15625 34.160156 C 25.738281 31.785156 26.414062 27.5625 24.570312 25.445312 C 23.609375 24.335938 22.066406 23.792969 19.96875 23.792969 Z M 41.359375 23.792969 L 38.117188 40.484375 L 41.757812 40.484375 L 42.617188 36.050781 C 46.890625 36.050781 49.257812 36.296875 51.542969 34.160156 C 54.125 31.785156 54.800781 27.5625 52.957031 25.445312 C 51.996094 24.335938 50.453125 23.792969 48.355469 23.792969 Z M 18.671875 26.421875 C 20.941406 26.484375 22.242188 26.964844 21.691406 29.816406 C 20.910156 33.824219 18.152344 33.410156 14.757812 33.410156 L 16.113281 26.425781 C 17.054688 26.425781 17.914062 26.402344 18.671875 26.421875 Z M 47.058594 26.421875 C 49.332031 26.484375 50.617188 26.964844 50.066406 29.816406 C 49.273438 33.882812 46.4375 33.410156 43.132812 33.410156 L 44.488281 26.425781 C 45.433594 26.425781 46.300781 26.402344 47.058594 26.421875 Z M 47.058594 26.421875 "/>
</g>
</svg>
