<?xml version="1.0" encoding="UTF-8"?>
<svg xmlns="http://www.w3.org/2000/svg" xmlns:xlink="http://www.w3.org/1999/xlink" viewBox="0 0 64 64" width="64px" height="64px">
<g id="surface14957833">
<path style=" stroke:none;fill-rule:nonzero;fill:rgb(96.862745%,87.843138%,9.019608%);fill-opacity:1;" d="M 22.808594 6.71875 C 21.117188 6.605469 19.457031 6.910156 18 7.75 C 16.058594 8.871094 14.765625 10.785156 14.070312 12.988281 C 13.375 15.191406 13.214844 17.730469 13.46875 20.503906 C 13.496094 20.785156 13.542969 21.078125 13.578125 21.363281 C 13.3125 21.476562 13.035156 21.582031 12.777344 21.699219 C 10.25 22.867188 8.132812 24.273438 6.570312 25.976562 C 5.007812 27.679688 4 29.757812 4 32 C 4 34.242188 5.007812 36.320312 6.570312 38.023438 C 8.132812 39.726562 10.25 41.132812 12.777344 42.300781 C 13.035156 42.417969 13.3125 42.523438 13.578125 42.636719 C 13.542969 42.921875 13.496094 43.214844 13.46875 43.496094 C 13.214844 46.269531 13.375 48.808594 14.070312 51.011719 C 14.765625 53.214844 16.058594 55.128906 18 56.25 C 19.941406 57.371094 22.246094 57.535156 24.5 57.035156 C 26.753906 56.535156 29.035156 55.402344 31.308594 53.796875 C 31.539062 53.632812 31.769531 53.445312 32 53.273438 C 32.230469 53.445312 32.460938 53.632812 32.691406 53.796875 C 34.964844 55.402344 37.246094 56.535156 39.5 57.035156 C 41.753906 57.535156 44.058594 57.371094 46 56.25 C 47.941406 55.128906 49.234375 53.214844 49.929688 51.011719 C 50.625 48.808594 50.785156 46.269531 50.53125 43.496094 C 50.503906 43.214844 50.457031 42.921875 50.421875 42.636719 C 50.6875 42.523438 50.964844 42.417969 51.222656 42.300781 C 53.75 41.132812 55.867188 39.726562 57.429688 38.023438 C 58.992188 36.320312 60 34.242188 60 32 C 60 29.757812 58.992188 27.679688 57.429688 25.976562 C 55.867188 24.273438 53.75 22.867188 51.222656 21.699219 C 50.964844 21.582031 50.6875 21.476562 50.421875 21.363281 C 50.457031 21.078125 50.503906 20.785156 50.53125 20.503906 C 50.785156 17.730469 50.625 15.191406 49.929688 12.988281 C 49.234375 10.785156 47.941406 8.871094 46 7.75 C 44.058594 6.628906 41.753906 6.464844 39.5 6.964844 C 37.246094 7.464844 34.964844 8.597656 32.691406 10.203125 C 32.460938 10.367188 32.230469 10.554688 32 10.726562 C 31.769531 10.554688 31.539062 10.367188 31.308594 10.203125 C 29.035156 8.597656 26.753906 7.464844 24.5 6.964844 C 23.9375 6.839844 23.371094 6.757812 22.808594 6.71875 Z M 22.546875 10.703125 C 22.886719 10.730469 23.25 10.785156 23.636719 10.871094 C 25.148438 11.207031 26.957031 12.054688 28.867188 13.382812 C 27.277344 14.890625 25.710938 16.605469 24.21875 18.527344 C 21.8125 18.859375 19.542969 19.355469 17.445312 19.976562 C 17.25 17.660156 17.417969 15.667969 17.882812 14.191406 C 18.359375 12.679688 19.070312 11.75 20 11.214844 C 20.695312 10.8125 21.523438 10.625 22.546875 10.703125 Z M 41.453125 10.703125 C 42.476562 10.625 43.304688 10.8125 44 11.214844 C 44.929688 11.75 45.640625 12.679688 46.117188 14.191406 C 46.582031 15.667969 46.75 17.660156 46.554688 19.976562 C 44.457031 19.355469 42.1875 18.859375 39.78125 18.527344 C 38.289062 16.605469 36.722656 14.890625 35.132812 13.382812 C 37.042969 12.054688 38.851562 11.207031 40.363281 10.871094 C 40.75 10.785156 41.113281 10.730469 41.453125 10.703125 Z M 32 15.917969 C 32.703125 16.566406 33.40625 17.289062 34.105469 18.046875 C 33.40625 18.023438 32.710938 18 32 18 C 31.289062 18 30.59375 18.023438 29.894531 18.046875 C 30.59375 17.289062 31.296875 16.566406 32 15.917969 Z M 32 22 C 33.929688 22 35.796875 22.113281 37.597656 22.304688 C 38.664062 23.765625 39.695312 25.328125 40.660156 27 C 41.625 28.671875 42.460938 30.347656 43.195312 32 C 42.460938 33.652344 41.625 35.328125 40.660156 37 C 39.695312 38.671875 38.664062 40.234375 37.597656 41.695312 C 35.796875 41.886719 33.929688 42 32 42 C 30.070312 42 28.203125 41.886719 26.402344 41.695312 C 25.335938 40.234375 24.304688 38.671875 23.339844 37 C 22.375 35.328125 21.539062 33.652344 20.804688 32 C 21.539062 30.347656 22.375 28.671875 23.339844 27 C 24.304688 25.328125 25.335938 23.765625 26.402344 22.304688 C 28.203125 22.113281 30.070312 22 32 22 Z M 20.96875 23.199219 C 20.597656 23.789062 20.230469 24.382812 19.875 25 C 19.519531 25.617188 19.191406 26.230469 18.863281 26.847656 C 18.558594 25.863281 18.285156 24.894531 18.074219 23.960938 C 18.988281 23.675781 19.964844 23.429688 20.96875 23.199219 Z M 43.03125 23.199219 C 44.035156 23.429688 45.011719 23.675781 45.925781 23.960938 C 45.714844 24.894531 45.441406 25.863281 45.136719 26.847656 C 44.808594 26.230469 44.480469 25.617188 44.125 25 C 43.769531 24.382812 43.402344 23.789062 43.03125 23.199219 Z M 14.308594 25.40625 C 14.820312 27.535156 15.527344 29.746094 16.441406 32 C 15.527344 34.253906 14.820312 36.464844 14.308594 38.59375 C 12.207031 37.605469 10.566406 36.460938 9.519531 35.320312 C 8.449219 34.152344 8 33.070312 8 32 C 8 30.929688 8.449219 29.847656 9.519531 28.679688 C 10.566406 27.539062 12.207031 26.394531 14.308594 25.40625 Z M 49.691406 25.40625 C 51.792969 26.394531 53.433594 27.539062 54.480469 28.679688 C 55.550781 29.847656 56 30.929688 56 32 C 56 33.070312 55.550781 34.152344 54.480469 35.320312 C 53.433594 36.460938 51.792969 37.605469 49.691406 38.59375 C 49.179688 36.464844 48.472656 34.253906 47.558594 32 C 48.472656 29.746094 49.179688 27.535156 49.691406 25.40625 Z M 32 26 C 28.710938 26 26 28.710938 26 32 C 26 35.289062 28.710938 38 32 38 C 35.289062 38 38 35.289062 38 32 C 38 28.710938 35.289062 26 32 26 Z M 32 30 C 33.128906 30 34 30.871094 34 32 C 34 33.128906 33.128906 34 32 34 C 30.871094 34 30 33.128906 30 32 C 30 30.871094 30.871094 30 32 30 Z M 18.863281 37.152344 C 19.191406 37.769531 19.519531 38.382812 19.875 39 C 20.230469 39.617188 20.597656 40.210938 20.96875 40.800781 C 19.964844 40.570312 18.988281 40.324219 18.074219 40.039062 C 18.285156 39.105469 18.558594 38.136719 18.863281 37.152344 Z M 45.136719 37.152344 C 45.441406 38.136719 45.714844 39.105469 45.925781 40.039062 C 45.011719 40.324219 44.035156 40.570312 43.03125 40.800781 C 43.402344 40.210938 43.769531 39.617188 44.125 39 C 44.480469 38.382812 44.808594 37.769531 45.136719 37.152344 Z M 17.445312 44.023438 C 19.542969 44.644531 21.8125 45.140625 24.21875 45.472656 C 25.710938 47.394531 27.277344 49.109375 28.867188 50.617188 C 26.957031 51.945312 25.148438 52.792969 23.636719 53.128906 C 22.089844 53.472656 20.929688 53.320312 20 52.785156 C 19.070312 52.25 18.359375 51.320312 17.882812 49.808594 C 17.417969 48.332031 17.25 46.339844 17.445312 44.023438 Z M 46.554688 44.023438 C 46.75 46.339844 46.582031 48.332031 46.117188 49.808594 C 45.640625 51.320312 44.929688 52.25 44 52.785156 C 43.070312 53.320312 41.910156 53.472656 40.363281 53.128906 C 38.851562 52.792969 37.042969 51.945312 35.132812 50.617188 C 36.722656 49.109375 38.289062 47.394531 39.78125 45.472656 C 42.1875 45.140625 44.457031 44.644531 46.554688 44.023438 Z M 29.894531 45.953125 C 30.59375 45.976562 31.289062 46 32 46 C 32.710938 46 33.40625 45.976562 34.105469 45.953125 C 33.40625 46.710938 32.703125 47.433594 32 48.082031 C 31.296875 47.433594 30.59375 46.710938 29.894531 45.953125 Z M 29.894531 45.953125 "/>
</g>
</svg>
