<?xml version="1.0" encoding="UTF-8"?>
<svg xmlns="http://www.w3.org/2000/svg" xmlns:xlink="http://www.w3.org/1999/xlink" viewBox="0 0 64 64" width="64px" height="64px">
<g id="surface15043462">
<path style=" stroke:none;fill-rule:nonzero;fill:rgb(96.862745%,87.843138%,9.019608%);fill-opacity:1;" d="M 55.066406 35.585938 C 52.832031 35.597656 50.894531 36.132812 49.273438 36.933594 C 48.679688 35.746094 48.078125 34.703125 47.976562 33.929688 C 47.859375 33.027344 47.722656 32.484375 47.863281 31.40625 C 48.007812 30.328125 48.628906 28.804688 48.621094 28.691406 C 48.609375 28.574219 48.480469 28.027344 47.191406 28.019531 C 45.898438 28.007812 44.796875 28.265625 44.667969 28.605469 C 44.539062 28.945312 44.289062 29.710938 44.136719 30.511719 C 43.910156 31.683594 41.5625 35.851562 40.226562 38.035156 C 39.792969 37.183594 39.421875 36.433594 39.34375 35.839844 C 39.226562 34.933594 39.089844 34.394531 39.230469 33.316406 C 39.375 32.238281 39.996094 30.710938 39.988281 30.597656 C 39.976562 30.484375 39.847656 29.933594 38.558594 29.925781 C 37.269531 29.914062 36.164062 30.175781 36.035156 30.515625 C 35.90625 30.855469 35.769531 31.648438 35.503906 32.421875 C 35.238281 33.191406 32.117188 40.144531 31.300781 41.949219 C 30.882812 42.867188 30.519531 43.605469 30.265625 44.109375 C 30.265625 44.109375 30.261719 44.109375 30.261719 44.109375 C 30.261719 44.109375 30.246094 44.140625 30.21875 44.199219 C 30 44.628906 29.871094 44.863281 29.871094 44.863281 C 29.871094 44.863281 29.871094 44.867188 29.875 44.871094 C 29.699219 45.1875 29.515625 45.480469 29.421875 45.480469 C 29.359375 45.480469 29.226562 44.640625 29.449219 43.488281 C 29.914062 41.074219 31.03125 37.3125 31.019531 37.183594 C 31.015625 37.117188 31.226562 36.460938 30.292969 36.117188 C 29.382812 35.785156 29.058594 36.339844 28.972656 36.34375 C 28.894531 36.34375 28.835938 36.539062 28.835938 36.539062 C 28.835938 36.539062 29.847656 32.304688 26.898438 32.304688 C 25.058594 32.304688 22.503906 34.320312 21.246094 36.148438 C 20.453125 36.585938 18.753906 37.511719 16.949219 38.5 C 16.257812 38.878906 15.550781 39.269531 14.882812 39.636719 C 14.835938 39.589844 14.792969 39.539062 14.742188 39.488281 C 11.171875 35.675781 4.5625 32.976562 4.84375 27.851562 C 4.945312 25.984375 5.59375 21.078125 17.539062 15.125 C 27.324219 10.25 35.15625 11.59375 36.511719 14.566406 C 38.445312 18.8125 32.324219 26.710938 22.160156 27.851562 C 18.289062 28.285156 16.253906 26.785156 15.742188 26.222656 C 15.210938 25.636719 15.128906 25.609375 14.933594 25.71875 C 14.609375 25.898438 14.8125 26.421875 14.933594 26.726562 C 15.234375 27.519531 16.480469 28.917969 18.605469 29.613281 C 20.472656 30.226562 25.019531 30.5625 30.515625 28.4375 C 36.675781 26.054688 41.480469 19.429688 40.070312 13.890625 C 38.632812 8.257812 29.292969 6.40625 20.453125 9.546875 C 15.195312 11.414062 9.496094 14.351562 5.402344 18.179688 C 0.535156 22.734375 -0.242188 26.699219 0.078125 28.355469 C 1.214844 34.238281 9.324219 38.070312 12.574219 40.910156 C 12.414062 40.996094 12.265625 41.082031 12.125 41.15625 C 10.496094 41.960938 4.316406 45.199219 2.769531 48.617188 C 1.015625 52.492188 3.046875 55.277344 4.394531 55.648438 C 8.566406 56.808594 12.847656 54.722656 15.144531 51.292969 C 17.445312 47.863281 17.164062 43.394531 16.109375 41.355469 C 16.097656 41.328125 16.082031 41.304688 16.066406 41.28125 C 16.488281 41.03125 16.917969 40.777344 17.34375 40.527344 C 18.171875 40.042969 18.984375 39.589844 19.691406 39.203125 C 19.296875 40.285156 19.007812 41.585938 18.855469 43.457031 C 18.679688 45.660156 19.582031 48.503906 20.761719 49.625 C 21.28125 50.117188 21.90625 50.128906 22.304688 50.128906 C 23.679688 50.128906 24.304688 48.984375 24.992188 47.632812 C 25.839844 45.976562 26.59375 44.046875 26.59375 44.046875 C 26.59375 44.046875 25.648438 49.257812 28.21875 49.257812 C 29.152344 49.257812 30.097656 48.042969 30.515625 47.425781 C 30.515625 47.433594 30.515625 47.4375 30.515625 47.4375 C 30.515625 47.4375 30.539062 47.394531 30.589844 47.3125 C 30.6875 47.164062 30.738281 47.070312 30.738281 47.070312 C 30.738281 47.070312 30.742188 47.058594 30.742188 47.042969 C 31.121094 46.390625 31.953125 44.902344 33.207031 42.445312 C 34.820312 39.273438 36.371094 35.300781 36.371094 35.300781 C 36.371094 35.300781 36.515625 36.273438 36.988281 37.878906 C 37.265625 38.824219 37.855469 39.867188 38.320312 40.871094 C 37.949219 41.390625 37.714844 41.691406 37.714844 41.691406 C 37.714844 41.691406 37.71875 41.695312 37.722656 41.707031 C 37.421875 42.105469 37.085938 42.535156 36.734375 42.953125 C 35.457031 44.472656 33.9375 46.207031 33.734375 46.707031 C 33.496094 47.296875 33.550781 47.730469 34.015625 48.082031 C 34.355469 48.339844 34.957031 48.375 35.585938 48.335938 C 36.730469 48.257812 37.539062 47.972656 37.9375 47.800781 C 38.558594 47.578125 39.28125 47.234375 39.960938 46.738281 C 41.210938 45.816406 41.964844 44.503906 41.894531 42.757812 C 41.855469 41.796875 41.546875 40.84375 41.160156 39.945312 C 41.273438 39.78125 41.386719 39.617188 41.503906 39.453125 C 43.476562 36.566406 45.007812 33.398438 45.007812 33.398438 C 45.007812 33.398438 45.148438 34.371094 45.621094 35.976562 C 45.863281 36.789062 46.332031 37.675781 46.757812 38.546875 C 44.898438 40.054688 43.75 41.804688 43.351562 42.953125 C 42.613281 45.078125 43.191406 46.042969 44.273438 46.261719 C 44.765625 46.363281 45.460938 46.136719 45.980469 45.914062 C 46.632812 45.699219 47.410156 45.34375 48.140625 44.804688 C 49.394531 43.886719 50.597656 42.597656 50.523438 40.855469 C 50.488281 40.058594 50.277344 39.273438 49.984375 38.515625 C 51.554688 37.859375 53.59375 37.496094 56.1875 37.800781 C 61.75 38.449219 62.839844 41.925781 62.632812 43.378906 C 62.425781 44.832031 61.257812 45.632812 60.867188 45.871094 C 60.476562 46.113281 60.355469 46.199219 60.390625 46.375 C 60.4375 46.636719 60.617188 46.625 60.949219 46.570312 C 61.40625 46.492188 63.871094 45.386719 63.976562 42.703125 C 64.113281 39.296875 60.851562 35.554688 55.066406 35.585938 Z M 12.1875 50.042969 C 10.34375 52.050781 7.769531 52.8125 6.664062 52.171875 C 5.472656 51.480469 5.945312 48.523438 8.207031 46.386719 C 9.585938 45.089844 11.363281 43.890625 12.542969 43.152344 C 12.8125 42.988281 13.207031 42.753906 13.6875 42.464844 C 13.765625 42.421875 13.808594 42.394531 13.808594 42.394531 C 13.898438 42.339844 13.996094 42.28125 14.09375 42.222656 C 14.917969 45.257812 14.121094 47.933594 12.1875 50.042969 Z M 25.609375 40.914062 C 24.96875 42.476562 23.625 46.480469 22.808594 46.269531 C 22.105469 46.085938 21.679688 43.039062 22.667969 40.046875 C 23.164062 38.539062 24.230469 36.738281 24.855469 36.039062 C 25.859375 34.910156 26.96875 34.542969 27.234375 35.003906 C 27.578125 35.582031 26.011719 39.933594 25.609375 40.914062 Z M 36.703125 46.207031 C 36.429688 46.347656 36.179688 46.4375 36.0625 46.367188 C 35.976562 46.316406 36.175781 46.128906 36.175781 46.128906 C 36.175781 46.128906 37.5625 44.636719 38.109375 43.957031 C 38.429688 43.5625 38.796875 43.09375 39.199219 42.566406 C 39.203125 42.621094 39.203125 42.671875 39.203125 42.722656 C 39.199219 44.515625 37.472656 45.722656 36.703125 46.207031 Z M 45.246094 44.261719 C 45.042969 44.117188 45.074219 43.648438 45.742188 42.195312 C 46.007812 41.621094 46.605469 40.660156 47.644531 39.742188 C 47.765625 40.121094 47.839844 40.484375 47.835938 40.820312 C 47.820312 43.070312 46.214844 43.910156 45.246094 44.261719 Z M 45.246094 44.261719 "/>
</g>
</svg>
